<svg xmlns="http://www.w3.org/2000/svg" xmlns:svg="http://www.w3.org/2000/svg" id="Layer_1" width="792" height="612" x="0" y="0" enable-background="new 0 0 792 612" version="1.1" viewBox="0 0 792 612" xml:space="preserve"><metadata id="metadata3693"/><g id="g3105" transform="translate(14.669469,-80.682082)"><path id="path3677" d="m 589.08202,499.77746 -40.3716,0 0,-168.36691 40.3716,0 z m -40.20304,-168.35619 -0.1684,-104.30857 40.3716,0 -0.33048,104.26805 z m -0.1684,168.35619 -40.37568,0 0,-104.82988 -259.42272,0 0,104.82988 -79.42128,0 0,-272.66476 79.42128,0 0,104.29785 224.92224,0 34.50456,0 40.37568,0 0,168.36691 z m 0,-272.66476 -40.37568,0 -0.0171,104.30857 40.55802,-0.01 z" style="fill:#ba160c"/><path id="path3679" d="m 263.96692,553.27262 c 6.812,4.218 10.219,10.652 10.219,19.303 0,6.272 -2,11.571 -6.002,15.897 -4.325,4.758 -10.165,7.137 -17.519,7.137 l -28.629,0 0,-19.465 28.629,0 c 2.812,0 4.218,-2.109 4.218,-6.327 0,-4.216 -1.406,-6.325 -4.218,-6.325 l -28.629,0 0,-19.303 27.17,0 c 2.811,0 4.217,-2.109 4.217,-6.327 0,-4.216 -1.406,-6.326 -4.217,-6.326 l -27.17,0 0,-19.464 27.17,0 c 7.353,0 13.192,2.379 17.519,7.137 3.892,4.325 5.839,9.625 5.839,15.896 0,7.787 -2.866,13.842 -8.597,18.167 z m -41.931,42.338 -52.312,0 0,-51.42 19.466,0 5.259,0 27.588,0 0,19.303 -32.847,0 0,12.652 32.847,0 0,19.465 z m 0,-64.073 -32.847,0 0.0405,12.76351 -19.466,0.081 -0.0405,-32.30954 52.312,0 0,19.465 z" style="fill:#ba160c"/><path id="path3683" d="m 384.35292,595.61062 h -19.465 v -26.602 h -31.094 -0.618 v -19.466 h 0.618 31.094 v -11.68 c 0,-4.216 -1.406,-6.324 -4.218,-6.324 h -27.494 v -19.465 h 27.494 c 7.03,0 12.733,2.541 17.114,7.623 4.379,5.083 6.569,11.139 6.569,18.167 v 57.747 z m -51.177,-26.602 h -19.547 -12.165 v 26.602 h -19.466 v -57.748 c 0,-7.028 2.19,-13.083 6.569,-18.167 4.379,-5.083 10.03,-7.623 16.952,-7.623 h 27.656 v 19.466 h -27.656 c -2.704,0 -4.055,2.108 -4.055,6.324 v 11.68 h 12.165 19.547 v 19.466 z" style="fill:#ba160c"/><path id="path3685" d="m 492.35692,569.81862 c 0,7.03 -2.109,13.031 -6.327,18.006 -4.541,5.19 -10.273,7.786 -17.193,7.786 h -72.02 v -19.465 h 72.02 c 2.704,0 4.055,-2.109 4.055,-6.327 0,-4.216 -1.352,-6.325 -4.055,-6.325 h -52.394 c -6.92,0 -12.652,-2.596 -17.193,-7.787 -4.327,-4.865 -6.49,-10.813 -6.49,-17.843 0,-7.028 2.218,-13.083 6.651,-18.167 4.434,-5.083 10.112,-7.623 17.032,-7.623 h 72.021 v 19.464 h -72.021 c -2.703,0 -4.055,2.109 -4.055,6.326 0,4.109 1.352,6.164 4.055,6.164 h 52.394 c 6.92,0 12.652,2.596 17.193,7.787 4.218,4.974 6.327,10.976 6.327,18.004 z" style="fill:#ba160c"/><polygon id="polygon3687" points="656.952 339.555 591.906 339.555 591.906 352.207 661.331 352.207 661.331 371.672 572.44 371.672 572.44 288.135 661.494 288.135 661.494 307.599 591.906 307.599 591.906 320.089 656.952 320.089" transform="translate(-71.972085,223.93862)" style="fill:#ba160c"/><g id="g3349"><g id="g3344"><text style="font-size:84.015625px;font-style:italic;font-variant:normal;font-weight:700;font-stretch:normal;text-align:start;line-height:125%;letter-spacing:0;word-spacing:0;writing-mode:lr-tb;text-anchor:start;fill:#4d4d4d;fill-opacity:1;stroke:none;font-family:Bitsumishi;-inkscape-font-specification:Bitsumishi Bold Italic" id="text3076" x="181.984" y="203.033" transform="scale(0.93350678,1.0712295)" xml:space="preserve"><tspan id="tspan3080" x="181.984" y="203.033" style="font-size:84.015625px;font-style:normal;font-variant:normal;font-weight:400;font-stretch:normal;text-align:start;line-height:125%;letter-spacing:25.64349174px;writing-mode:lr-tb;text-anchor:start;fill:#4d4d4d;font-family:Bitsumishi;-inkscape-font-specification:Bitsumishi">APACHE</tspan></text><rect style="fill:#4d4d4d" id="rect3090" width="7.78" height="10.798" x="178.851" y="191.931"/></g><rect id="rect3103" width="8.144" height="10.787" x="334.647" y="191.939" style="fill:#4d4d4d"/></g></g></svg>